<svg width="323" height="92" viewBox="0 0 323 92" fill="none" xmlns="http://www.w3.org/2000/svg">
<path d="M149.748 62.7205L139.015 45.6399C147.555 43.7934 152.056 38.7154 152.056 32.1371C152.056 21.2886 142.362 16.0952 133.706 16.0952H103.469V16.2106C107.393 18.0571 109.816 21.9811 109.816 26.482V65.4903C109.816 69.9912 107.393 73.9151 103.469 75.7617V75.8771H129.436V75.7617C125.512 73.9151 123.204 69.9912 123.204 65.4903V46.1016C125.974 46.3324 126.666 48.1789 130.821 56.0267L142.477 75.8771H160.25V75.7617C157.249 74.1459 154.249 69.8758 149.748 62.7205ZM124.704 17.2493C132.206 17.2493 138.322 23.943 138.322 33.0603C138.322 42.0622 133.244 45.4091 127.82 45.4091C126.204 45.4091 124.589 45.2937 123.204 45.0629V17.2493H124.704Z" fill="black"/>
<path d="M204.106 62.9056L183.679 16.0952H183.564L163.829 64.3719C161.521 70.0117 159.097 73.5084 156.327 75.7643V75.8771H169.599V75.7643C164.752 73.9596 162.675 70.6885 164.983 65.0487L167.522 58.7321H188.18L190.719 64.9359C193.027 70.5757 191.181 74.0724 186.334 75.7643V75.8771H213.455V75.7643C210.223 74.0724 207.338 70.4629 204.106 62.9056ZM167.868 57.6042L177.678 33.5786L187.488 57.6042H167.868Z" fill="black"/>
<path d="M258.926 62.7205L248.193 45.6399C256.733 43.7934 261.234 38.7154 261.234 32.1371C261.234 21.2886 251.54 16.0952 242.884 16.0952H212.647V16.2106C216.571 18.0571 218.994 21.9811 218.994 26.482V65.4903C218.994 69.9912 216.571 73.9151 212.647 75.7617V75.8771H238.614V75.7617C234.69 73.9151 232.382 69.9912 232.382 65.4903V46.1016C235.151 46.3324 235.844 48.1789 239.999 56.0267L251.655 75.8771H269.428V75.7617C266.543 74.1459 263.427 69.8758 258.926 62.7205ZM233.882 17.2493C241.384 17.2493 247.5 23.943 247.5 33.0603C247.5 42.0622 242.422 45.4091 236.998 45.4091C235.382 45.4091 233.767 45.2937 232.382 45.0629V17.2493H233.882Z" fill="black"/>
<path d="M268.851 75.8771H314.899L316.169 56.0267H316.053C312.591 66.8752 307.628 74.6076 299.204 74.6076H288.471V43.9088H291.587C297.472 43.9088 300.473 47.7173 303.012 55.4497H303.128V32.9449H303.012C300.127 39.8694 297.472 42.7547 291.587 42.7547H288.471V17.2493H299.204C306.244 17.2493 311.206 23.7122 314.553 34.3298H314.668L313.514 16.0952H268.736V16.2106C272.66 18.0571 275.083 21.9811 275.083 26.482V65.4903C275.083 69.9912 272.66 73.9151 268.736 75.7617V75.8771H268.851Z" fill="black"/>
<path d="M45.9861 91.9721C71.3835 91.9721 91.9721 71.3835 91.9721 45.9861C91.9721 20.5887 71.3835 0 45.9861 0C20.5887 0 0 20.5887 0 45.9861C0 71.3835 20.5887 91.9721 45.9861 91.9721Z" fill="black"/>
<path fill-rule="evenodd" clip-rule="evenodd" d="M66.7481 58.0112C66.7481 71.6397 55.7537 75.8771 47.5079 75.8771C44.9696 75.8771 42.3704 75.4207 39.8515 74.9784C37.4835 74.5626 35.1866 74.1592 33.0778 74.1592C29.5276 74.1592 27.4661 74.8464 25.8628 75.7626V52.8576H25.9773C29.5275 61.2179 35.9409 74.7318 48.3096 74.7318C54.6084 74.7318 58.9604 71.2961 58.9604 64.5392C58.9604 60.2039 55.4148 57.5007 49.665 54.9699V40.2331C60.0363 43.954 66.7481 48.5469 66.7481 58.0112ZM43.9168 38.0615C36.1875 34.9967 32.3907 32.6455 32.3907 27.5477C32.3907 20.7907 37.5443 17.355 43.385 17.355C51.2872 17.355 57.4716 24.112 63.8849 36.4806H63.9995L62.9688 16.8969C61.938 17.126 60.5637 17.355 59.304 17.355C57.1227 17.355 55.2711 17.0959 53.2473 16.8127C50.8083 16.4715 48.1192 16.0952 44.3012 16.0952C35.7119 16.0952 24.7175 21.0198 24.7175 33.9611C24.7175 41.8633 28.1533 47.3605 41.2091 51.7124C42.1384 52.0457 43.0418 52.3719 43.9168 52.6939V38.0615Z" fill="white"/>
<path d="M49.435 8.04736H43.6868V17.2446H49.435V8.04736Z" fill="white"/>
<path d="M49.435 74.7271H43.6868V83.9243H49.435V74.7271Z" fill="white"/>
</svg>
